<svg width="20" height="20" viewBox="0 0 20 20" fill="none" xmlns="http://www.w3.org/2000/svg">
<path fill-rule="evenodd" clip-rule="evenodd" d="M6.31711 13.6837C10.1678 17.5345 13.7361 17.9561 14.7837 17.9951C16.0495 18.0412 17.3415 17.0077 17.9003 15.9491C17.009 14.9035 15.8482 14.0923 14.5774 13.213C13.8273 13.9622 12.9029 15.3542 11.6721 14.8555C10.972 14.5741 9.24345 13.7779 7.73321 12.2666C6.22197 10.7564 5.42679 9.02783 5.14337 8.3288C4.64463 7.09597 6.0407 6.16959 6.79081 5.41948C5.91151 4.12757 5.11433 2.9368 4.07078 2.09054C2.99719 2.65138 1.95765 3.93328 2.00472 5.21618C2.04377 6.26373 2.4654 9.83203 6.31711 13.6837ZM14.7096 19.9971C13.2674 19.944 9.18036 19.3792 4.90001 15.0998C0.620663 10.8195 0.0568263 6.73343 0.00274607 5.29029C-0.0773728 3.09103 1.60713 0.95486 3.55301 0.120623C3.78734 0.0194398 4.04394 -0.0190837 4.29765 0.0088327C4.55135 0.0367491 4.79344 0.130146 5.00016 0.279859C6.61055 1.4546 7.72119 3.23424 8.67561 4.62831C8.87415 4.91819 8.96511 5.26836 8.93274 5.61822C8.90037 5.96808 8.74671 6.29562 8.49835 6.54415L7.14033 7.90317C7.4558 8.5992 8.09775 9.79898 9.14931 10.8505C10.2009 11.9021 11.4007 12.544 12.0977 12.8595L13.4547 11.5015C13.7042 11.2526 14.0331 11.0992 14.3841 11.0679C14.7351 11.0366 15.086 11.1294 15.3755 11.3302C16.7977 12.3157 18.4681 13.4103 19.6859 14.9696C19.8478 15.1779 19.9508 15.4257 19.9841 15.6874C20.0174 15.949 19.9798 16.2147 19.8752 16.4569C19.037 18.4128 16.9158 20.0782 14.7096 19.9971Z" fill="#94A3B8"/>
</svg>
