<svg width="25" height="25" viewBox="0 0 25 25" fill="none" xmlns="http://www.w3.org/2000/svg">
<path d="M24.998 12.498V12.4917C24.998 8.79306 23.3877 5.47145 20.8306 3.18726L20.8181 3.17685C20.7865 3.1428 20.7512 3.11241 20.7129 3.08623L20.7108 3.08519C18.4397 1.09111 15.5192 -0.00586587 12.4969 2.35919e-05C9.33883 2.35919e-05 6.45573 1.17284 4.25799 3.1081L4.27153 3.09665C4.24504 3.11674 4.22062 3.13942 4.19862 3.16435C2.8774 4.33424 1.81985 5.77257 1.09602 7.38202C0.372184 8.99147 -0.00140289 10.7364 3.9587e-06 12.5011C3.9587e-06 16.1987 1.60821 19.5203 4.16321 21.8055L4.17571 21.816C4.20879 21.8535 4.24581 21.8874 4.28611 21.917L4.2882 21.918C6.55868 23.9092 9.47703 25.0045 12.4969 24.999C15.5309 25.0037 18.4618 23.8982 20.7369 21.891L20.7233 21.9024C22.0674 20.7338 23.1449 19.2901 23.8827 17.6691C24.6206 16.048 25.0016 14.2874 25.0001 12.5063V12.499L24.998 12.498ZM20.3504 20.6275C19.7313 20.1267 19.0654 19.6865 18.3621 19.313L18.2943 19.2797C18.9328 17.4392 19.3172 15.3175 19.3536 13.1104V13.0937H23.7918C23.6421 15.9491 22.4131 18.641 20.3536 20.6244L20.3504 20.6275ZM13.0948 19.0599C14.4311 19.1318 15.68 19.4255 16.832 19.9036L16.757 19.8765C15.8341 21.9805 14.5353 23.4262 13.0948 23.7439V19.0599ZM13.0948 17.8684V13.0937H18.1652C18.125 15.0709 17.7821 17.0303 17.1486 18.9037L17.1892 18.7672C15.8961 18.2357 14.5207 17.932 13.1239 17.8694L13.0958 17.8684H13.0948ZM13.0948 11.9022V7.12757C14.5292 7.0621 15.9414 6.74809 17.2684 6.19952L17.1861 6.22972C17.7642 7.91605 18.1194 9.85964 18.1652 11.8803V11.9022H13.0948ZM13.0948 5.936V1.25409C14.5353 1.57177 15.8341 3.01124 16.757 5.12148C15.68 5.56936 14.4311 5.86205 13.125 5.93496L13.0948 5.936ZM16.0674 1.76967C17.2948 2.17905 18.4427 2.79632 19.4609 3.59452L19.437 3.57577C18.9755 3.93824 18.4579 4.27988 17.9121 4.57673L17.8538 4.6059C17.4127 3.56507 16.8063 2.60239 16.0581 1.75509L16.0674 1.76655V1.76967ZM11.9011 1.25721V5.936C10.6163 5.87046 9.35227 5.58509 8.16392 5.09232L8.23892 5.1194C9.16592 3.0154 10.4627 1.57073 11.9032 1.25305L11.9011 1.25721ZM7.14317 4.60277C6.57856 4.299 6.04058 3.94813 5.53497 3.5539L5.55997 3.57265C6.54857 2.79787 7.66054 2.19505 8.84928 1.78946L8.92844 1.7655C8.19977 2.58985 7.60603 3.52423 7.16921 4.53403L7.14317 4.60277ZM11.9032 7.12653V11.9011H6.83278C6.87861 9.8586 7.23379 7.915 7.85249 6.09224L7.81187 6.22868C9.10453 6.75934 10.4791 7.06273 11.8751 7.12549L11.9032 7.12653ZM11.9032 13.0927V17.8673C10.4688 17.9328 9.05659 18.2468 7.72958 18.7954L7.81187 18.7652C7.23379 17.0799 6.87861 15.1353 6.83278 13.1146V13.0927H11.9032ZM11.9032 19.0589V23.7408C10.4627 23.4231 9.16384 21.9837 8.241 19.8734C9.318 19.4255 10.5669 19.1339 11.873 19.061L11.9032 19.0589ZM8.93469 23.2252C7.70766 22.817 6.55982 22.2012 5.54122 21.4045L5.56622 21.4233C6.02764 21.0608 6.5453 20.7192 7.09109 20.4223L7.14942 20.3932C7.58676 21.4344 8.19315 22.3962 8.94407 23.2398L8.93469 23.2294V23.2252ZM17.8548 20.3921C18.4589 20.7202 18.9766 21.0608 19.463 21.441L19.438 21.4222C18.4494 22.197 17.3374 22.7998 16.1487 23.2054L16.0695 23.2294C16.7982 22.4054 17.3919 21.4714 17.8288 20.4619L17.8548 20.3942V20.3921ZM23.7918 11.9022H19.3536C19.3217 9.7471 18.9498 7.61056 18.2516 5.57144L18.2943 5.71518C19.0301 5.32778 19.7267 4.87013 20.3744 4.34863L20.3494 4.36738C22.4047 6.34329 23.6342 9.02516 23.7897 11.872L23.7918 11.9022ZM4.64754 4.36842C5.24749 4.85588 5.9214 5.30272 6.63592 5.68289L6.70362 5.71622C6.06514 7.5567 5.68079 9.6784 5.64434 11.8855V11.9022H1.20511C1.35478 9.04679 2.5838 6.35493 4.64338 4.37154L4.64754 4.36842ZM1.20616 13.0937H5.64434C5.67627 15.2488 6.04817 17.3854 6.74633 19.4245L6.70362 19.2807C5.9214 19.6963 5.24854 20.1432 4.62359 20.6473L4.64858 20.6286C2.59327 18.6526 1.36381 15.9708 1.20824 13.124L1.2072 13.0948L1.20616 13.0937Z" fill="#94A3B8"/>
</svg>
