<svg width="31" height="42" viewBox="0 0 31 42" fill="none" xmlns="http://www.w3.org/2000/svg">
<path fill-rule="evenodd" clip-rule="evenodd" d="M15.5 42L12.9465 39.428C10.7802 37.246 7.65079 33.7784 5.03269 29.8628C2.52055 26.1056 0 21.2425 0 16.4105C0 7.35918 6.98212 0 15.5 0C24.0179 0 31 7.35918 31 16.4105C31 21.1463 28.4695 26.0159 25.9745 29.774C23.3633 33.7073 20.2379 37.2278 18.0535 39.428L15.5 42ZM3.71127 16.4105C3.71127 23.4757 11.3739 32.411 15.5 36.5669C19.6261 32.411 27.2887 23.2679 27.2887 16.4105C27.2887 9.55316 21.9838 3.9426 15.5 3.9426C9.0162 3.9426 3.71127 9.55316 3.71127 16.4105Z" fill="white"/>
<path d="M20 14C20 16.2091 18.2091 18 16 18C13.7909 18 12 16.2091 12 14C12 11.7909 13.7909 10 16 10C18.2091 10 20 11.7909 20 14Z" fill="white"/>
</svg>
